<svg xmlns="http://www.w3.org/2000/svg" id="Layer_1" data-name="Layer 1" viewBox="0 0 440 440"><path d="M341.8,156.19a90.43,90.43,0,0,0-165.3-13,29.14,29.14,0,0,0-5-.43,29.55,29.55,0,0,0-26.92,17.16,74.94,74.94,0,0,0,3.22,142.84L138,339.25a7.08,7.08,0,0,0,11.09,7.5l54.87-41h131a74.92,74.92,0,0,0,6.89-149.52Zm-6.89,135.35H201.58a7.15,7.15,0,0,0-4.25,1.41L157,323.15l6.37-23.8a7.07,7.07,0,0,0-5.57-8.8,60.76,60.76,0,0,1-5.89-118.12,7.07,7.07,0,0,0,4.79-4.68,15.52,15.52,0,0,1,20.83-9.63,7.09,7.09,0,0,0,9.23-3.63,76.25,76.25,0,0,1,143,10.42,7.09,7.09,0,0,0,6.66,5.16,60.74,60.74,0,0,1-1.43,121.47Z"/><path d="M297.69,187.74V158.5a3.51,3.51,0,0,0-3.51-3.51h-10a3.51,3.51,0,0,0-3.51,3.51v15.72L255.38,154a5.68,5.68,0,0,0-7.08,0l-66.25,53,7.08,8.85,11.16-8.93V264a5.67,5.67,0,0,0,5.67,5.67h33.79a5.67,5.67,0,0,0,5.67-5.67V235.5h17.85V264a5.66,5.66,0,0,0,5.66,5.67h31.88a5.67,5.67,0,0,0,5.67-5.67V209.37l8.07,6.45,7.08-8.85-24-19.23Zm-2.55,70.59H274.6v-28.5a5.67,5.67,0,0,0-5.67-5.67H239.75a5.67,5.67,0,0,0-5.67,5.67v28.5H211.63v-60.5l40.21-32.17,43.3,34.64Z"/></svg>
