<svg id="Layer_1" data-name="Layer 1" xmlns="http://www.w3.org/2000/svg" viewBox="0 0 1450.33 441.34"><path d="M560.49,219.57a36.38,36.38,0,0,0-10.28-6.22L534.84,207a15.54,15.54,0,0,1-5.72-3.62,6.41,6.41,0,0,1-1.6-4.25,7.19,7.19,0,0,1,2.29-5q2.28-2.41,7.65-2.41a40.44,40.44,0,0,1,11.44,1.91A78.55,78.55,0,0,1,560,197.85a19.85,19.85,0,0,0,4.72-6.65,23.21,23.21,0,0,0,2-8.28,69.68,69.68,0,0,0-12.65-4.85,59,59,0,0,0-16.66-2.28,35.36,35.36,0,0,0-15.4,3.28,27.24,27.24,0,0,0-11,9.13A23.3,23.3,0,0,0,507,201.85q0,8.94,5.07,14.38a36.51,36.51,0,0,0,12.81,8.69L540,231.17c3.5,1.45,5.69,3.05,6.56,4.78a10.38,10.38,0,0,1,1.32,4.59,8.3,8.3,0,0,1-2.38,5.63c-1.58,1.75-4.19,2.62-7.81,2.62a37.52,37.52,0,0,1-13.38-2.53,78.72,78.72,0,0,1-12-5.66,23.56,23.56,0,0,0-5.09,6.6,21.32,21.32,0,0,0-2.59,8.34,55.69,55.69,0,0,0,15.5,6.88,60.68,60.68,0,0,0,16.18,2.37q11,0,18.22-3.53a25.12,25.12,0,0,0,10.94-9.59A25.89,25.89,0,0,0,569.09,238,23.4,23.4,0,0,0,566.9,228,25.62,25.62,0,0,0,560.49,219.57Z"/><path d="M628.9,250.6a11.91,11.91,0,0,1-.88-4.75V220.42c0-5.3-1.09-9.49-3.28-12.6a18.57,18.57,0,0,0-8.34-6.69,28.22,28.22,0,0,0-10.56-2,71,71,0,0,0-9.07.66,100.18,100.18,0,0,0-10.18,1.87,64.26,64.26,0,0,0-9.38,3,36,36,0,0,0,1.47,7.41,16.71,16.71,0,0,0,3.22,6.16q4.94-1.44,9.69-2.72a33.48,33.48,0,0,1,8.75-1.28c2.83,0,4.9.67,6.21,2a8.1,8.1,0,0,1,2,5.9v2.28c-.6,0-1.21-.07-1.84-.09q-4.29-.12-7.09-.12a31.67,31.67,0,0,0-12.1,2.31,20.84,20.84,0,0,0-9.15,7.09q-3.51,4.78-3.5,12.35a20.34,20.34,0,0,0,2.06,8.84,17.76,17.76,0,0,0,6.28,7.19,18.7,18.7,0,0,0,10.66,2.84,24.5,24.5,0,0,0,9.81-1.81,27,27,0,0,0,7.31-4.6c.39-.34.76-.69,1.13-1a17.25,17.25,0,0,0,4.4,4.13,17,17,0,0,0,9.1,2.5,16.78,16.78,0,0,0,3.62-4.44,17.17,17.17,0,0,0,2.31-5.62A7.7,7.7,0,0,1,628.9,250.6Zm-29.31-.18a5.47,5.47,0,0,1-4.22-1.66,5.89,5.89,0,0,1-1.53-4.16,8.75,8.75,0,0,1,1.81-5.72q1.82-2.2,6-2.21c1.66,0,3.76,0,6.28.09.2,0,.39,0,.59,0v9.93c-.42.35-.86.7-1.31,1A13.37,13.37,0,0,1,599.59,250.42Z"/><path d="M664.21,187.29a8.5,8.5,0,0,1,6.19-2.12,24.36,24.36,0,0,1,5.18.56c1.75.37,3.25.73,4.5,1.06a14.38,14.38,0,0,0,3.13-5.78,21.18,21.18,0,0,0,1.06-7.09,57.47,57.47,0,0,0-8.25-2.35,50.81,50.81,0,0,0-10.87-1.09,22.37,22.37,0,0,0-11.44,2.87,20.22,20.22,0,0,0-7.66,7.78,22.69,22.69,0,0,0-2.72,11.16,54.18,54.18,0,0,0,.63,8.31l-9.75-.12a25.19,25.19,0,0,0-.56,3.37,32.26,32.26,0,0,0-.19,3.44,34.79,34.79,0,0,0,.19,3.53,26.92,26.92,0,0,0,.56,3.53l10.75-.2V263a45.82,45.82,0,0,0,4.62.53c1.63.1,3.21.16,4.75.16s3.27-.06,4.94-.16,3.25-.28,4.75-.53V214.13l15,.22a26.92,26.92,0,0,0,.56-3.53,34.79,34.79,0,0,0,.19-3.53,29.61,29.61,0,0,0-.75-6.81l-16.32.16a39.42,39.42,0,0,1-.68-7C662,190.83,662.75,188.71,664.21,187.29Z"/><path d="M723.08,202.23a26.79,26.79,0,0,0-14.06-3.5q-9.93,0-16.12,4.47a25.47,25.47,0,0,0-9,12,47.92,47.92,0,0,0-2.85,17,56.33,56.33,0,0,0,1.28,12,30.08,30.08,0,0,0,4.41,10.47,22,22,0,0,0,8.5,7.34q5.37,2.71,13.62,2.72A49.91,49.91,0,0,0,722.12,263a35.1,35.1,0,0,0,11.34-5.25,27.58,27.58,0,0,0-1.75-6.19,15.35,15.35,0,0,0-3.5-5.37,62.76,62.76,0,0,1-7.84,2.65,32.17,32.17,0,0,1-8.35,1.1q-5,0-7.44-2.25a10.76,10.76,0,0,1-3.18-5.94,34.43,34.43,0,0,1-.54-3.63H733.4a47.78,47.78,0,0,0,1.28-5.9,49.9,49.9,0,0,0,.4-7A29,29,0,0,0,732,211.7,23.41,23.41,0,0,0,723.08,202.23Zm-6,22.44H700.74a22.33,22.33,0,0,1,1.75-8.32,6.56,6.56,0,0,1,6.41-3.75,7.28,7.28,0,0,1,4.78,1.47,8.31,8.31,0,0,1,2.59,3.88,16.43,16.43,0,0,1,.81,5.28Z"/><path d="M778.4,191.54c3.7,0,6.57,1,8.59,2.84a15,15,0,0,1,4.19,7.44,36.52,36.52,0,0,1,1,9.78c1.21.3,2.41.55,3.62.75a23,23,0,0,0,3.94.32c3.58,0,6.39-.86,8.41-2.57s3-4.52,3-8.43a23.15,23.15,0,0,0-4-13.25,27.37,27.37,0,0,0-11.19-9.32,39,39,0,0,0-16.9-3.43,36.53,36.53,0,0,0-18.29,4.68Q752.58,185,747.58,195t-5,25.65a74.47,74.47,0,0,0,1.72,15.91A45.61,45.61,0,0,0,750,250.76,29.25,29.25,0,0,0,760.55,261q6.66,3.81,16.47,3.81A48.36,48.36,0,0,0,790.4,263a55,55,0,0,0,11.78-4.85,42.11,42.11,0,0,0,9-6.56,17.28,17.28,0,0,0-3.44-7.22,24,24,0,0,0-5.75-5.65,76.9,76.9,0,0,1-9.56,6,24.63,24.63,0,0,1-11.69,2.75,14.37,14.37,0,0,1-12.66-6.66q-4.47-6.66-4.47-20,0-14.19,3.41-21.69T778.4,191.54Z"/><path d="M873.71,247.35V221.73a31,31,0,0,0-2-11.56,17.45,17.45,0,0,0-5.91-7.85,15.88,15.88,0,0,0-9.59-2.84,20.82,20.82,0,0,0-11.85,3.44c-1.67,1.11-3.29,2.3-4.84,3.56V182.73c0-4.33-.81-7.38-2.44-9.13S832.73,171,828.9,171h-7.63l-.87.87V263c1.5.25,3.06.42,4.68.53s3.21.16,4.75.16c1.75,0,3.46-.06,5.13-.16a40.67,40.67,0,0,0,4.56-.53V221.2A17.33,17.33,0,0,1,844.3,218a11.77,11.77,0,0,1,4.47-1.06q3.12,0,4.25,2a13.44,13.44,0,0,1,1.13,6.28v26.63q0,5.81,2.28,8.93t8.15,3.13a19.18,19.18,0,0,0,6.88-1.22,18.88,18.88,0,0,0,5.31-3,14.85,14.85,0,0,1-2.37-5.59A32.67,32.67,0,0,1,873.71,247.35Z"/><path d="M937.39,250.6a12.09,12.09,0,0,1-.87-4.75V220.42c0-5.3-1.09-9.49-3.28-12.6a18.55,18.55,0,0,0-8.35-6.69,28.14,28.14,0,0,0-10.56-2,70.84,70.84,0,0,0-9.06.66,100.36,100.36,0,0,0-10.19,1.87,64.51,64.51,0,0,0-9.37,3,35.34,35.34,0,0,0,1.47,7.41,16.84,16.84,0,0,0,3.21,6.16q5-1.44,9.69-2.72a33.59,33.59,0,0,1,8.75-1.28c2.84,0,4.91.67,6.22,2a8.15,8.15,0,0,1,2,5.9v2.28c-.6,0-1.21-.07-1.84-.09-2.86-.08-5.22-.12-7.1-.12A31.66,31.66,0,0,0,896,226.48a20.92,20.92,0,0,0-9.16,7.09q-3.5,4.78-3.5,12.35a20.49,20.49,0,0,0,2.06,8.84,17.78,17.78,0,0,0,6.29,7.19,18.69,18.69,0,0,0,10.65,2.84,24.5,24.5,0,0,0,9.81-1.81,27,27,0,0,0,7.32-4.6l1.13-1A16.11,16.11,0,0,0,934.08,264a16.6,16.6,0,0,0,3.63-4.44,17.17,17.17,0,0,0,2.31-5.62A7.72,7.72,0,0,1,937.39,250.6Zm-29.31-.18a5.48,5.48,0,0,1-4.22-1.66,5.89,5.89,0,0,1-1.53-4.16,8.8,8.8,0,0,1,1.81-5.72q1.82-2.2,6-2.21c1.67,0,3.76,0,6.29.09.2,0,.39,0,.59,0v9.93c-.43.35-.86.7-1.31,1A13.42,13.42,0,0,1,908.08,250.42Z"/><path d="M970.64,200.68v-18l-.87-.88h-7.63c-3.83,0-6.55.87-8.15,2.59s-2.41,4.79-2.41,9.16v7.08l-9.81-.14a30.08,30.08,0,0,0,0,13.87l9.81-.18v32.06q0,8.94,4,13.15t12.5,4.22q3.75,0,8.25-.37t7.94-.81a8.79,8.79,0,0,0,.37-2.19c.05-.79.07-1.54.07-2.25a29.25,29.25,0,0,0-.41-4.72,30.09,30.09,0,0,0-1.09-4.53h-7c-2,0-3.43-.51-4.28-1.53a6.56,6.56,0,0,1-1.29-4.35V214.11l14.82.24a20.37,20.37,0,0,0,.68-3.53,32.38,32.38,0,0,0,.19-3.53,26.71,26.71,0,0,0-.87-6.81Z"/><path d="M1014.83,246.92a17.12,17.12,0,0,0-4.62-1.69,23.37,23.37,0,0,0-5.19-.63,23.08,23.08,0,0,0-5.22.63,17.14,17.14,0,0,0-4.59,1.69,13.72,13.72,0,0,0-1.16,4.06,18.18,18.18,0,0,0,0,7,13.72,13.72,0,0,0,1.16,4.06,14.8,14.8,0,0,0,4.59,1.69,26.08,26.08,0,0,0,5.22.56,26.41,26.41,0,0,0,5.19-.56,14.8,14.8,0,0,0,4.62-1.69A13.45,13.45,0,0,0,1016,258a19.91,19.91,0,0,0,0-7A13.45,13.45,0,0,0,1014.83,246.92Z"/><path d="M1067.46,202.23a26.85,26.85,0,0,0-14.07-3.5q-9.93,0-16.12,4.47a25.47,25.47,0,0,0-9,12,47.92,47.92,0,0,0-2.85,17,55.7,55.7,0,0,0,1.29,12,29.88,29.88,0,0,0,4.4,10.47,22,22,0,0,0,8.5,7.34q5.37,2.71,13.63,2.72a49.89,49.89,0,0,0,13.28-1.81,35.1,35.1,0,0,0,11.34-5.25,27.06,27.06,0,0,0-1.75-6.19,15.21,15.21,0,0,0-3.5-5.37,62.21,62.21,0,0,1-7.84,2.65,32.17,32.17,0,0,1-8.35,1.1q-5,0-7.43-2.25a10.71,10.71,0,0,1-3.19-5.94c-.24-1.17-.41-2.38-.54-3.63h32.54a47.78,47.78,0,0,0,1.28-5.9,49.71,49.71,0,0,0,.41-7,28.88,28.88,0,0,0-3.1-13.53A23.45,23.45,0,0,0,1067.46,202.23Zm-6,22.44h-16.35a22.73,22.73,0,0,1,1.75-8.32,6.56,6.56,0,0,1,6.41-3.75,7.28,7.28,0,0,1,4.78,1.47,8.31,8.31,0,0,1,2.59,3.88,16.42,16.42,0,0,1,.82,5.28Z"/><path d="M1143.05,250.35a14.47,14.47,0,0,1-1-5.43V182.73c0-4.33-.8-7.38-2.41-9.13s-4.32-2.62-8.15-2.62h-7.63l-.87.87V202a24,24,0,0,0-11.5-2.69,22.05,22.05,0,0,0-12.57,3.82,26.3,26.3,0,0,0-9.09,11.21q-3.4,7.41-3.41,18.16a52.75,52.75,0,0,0,2.44,16.72,24.49,24.49,0,0,0,7.44,11.41,19.07,19.07,0,0,0,12.56,4.12,21.79,21.79,0,0,0,11.28-3,27.14,27.14,0,0,0,6-4.82c.32.49.65,1,1,1.45q4.2,5.43,12.44,5.56a16.6,16.6,0,0,0,3.63-4.44,17.17,17.17,0,0,0,2.31-5.62A7.75,7.75,0,0,1,1143.05,250.35Zm-24.44-2.4a11.49,11.49,0,0,1-4.66,1.22,5.35,5.35,0,0,1-3.84-1.72,11.81,11.81,0,0,1-2.69-5.38,37.93,37.93,0,0,1-1-9.4,50.35,50.35,0,0,1,.88-10,15.19,15.19,0,0,1,2.72-6.5,5.92,5.92,0,0,1,4.84-2.28,13.91,13.91,0,0,1,6.81,2.16c.44.25.88.52,1.32.79v27.51A13,13,0,0,1,1118.61,248Z"/><path d="M1210.42,250.6a14.67,14.67,0,0,1-1-5.43V200.6c-1.41-.25-3-.43-4.71-.56s-3.41-.19-5-.19-3.38.07-5.15.19a42.62,42.62,0,0,0-4.66.56v41.75a16.32,16.32,0,0,1-4.81,3.16,12.28,12.28,0,0,1-4.5,1q-3.06,0-4.19-2a13.29,13.29,0,0,1-1.12-6.22V211.67q0-5.82-2.32-8.94c-1.54-2.08-4.27-3.13-8.18-3.13a19.44,19.44,0,0,0-6.82,1.19,18.41,18.41,0,0,0-5.37,3,15.4,15.4,0,0,1,2.41,5.56,31.87,31.87,0,0,1,.71,6.88v25.62a31.09,31.09,0,0,0,2,11.57,17.55,17.55,0,0,0,5.91,7.84,15.88,15.88,0,0,0,9.59,2.84,20.89,20.89,0,0,0,11.85-3.43,64.12,64.12,0,0,0,7.19-5.57,19.28,19.28,0,0,0,2.06,3.19q4.41,5.56,12.72,5.69a17.45,17.45,0,0,0,3.62-4.31,16,16,0,0,0,2.31-5.5A7.82,7.82,0,0,1,1210.42,250.6Z"/><path d="M1243.64,246.92a17.12,17.12,0,0,0-4.62-1.69,23.37,23.37,0,0,0-5.19-.63,23.08,23.08,0,0,0-5.22.63,17.14,17.14,0,0,0-4.59,1.69,13.72,13.72,0,0,0-1.16,4.06,18.18,18.18,0,0,0,0,7A13.72,13.72,0,0,0,1224,262a14.8,14.8,0,0,0,4.59,1.69,26.08,26.08,0,0,0,5.22.56,26.41,26.41,0,0,0,5.19-.56,14.8,14.8,0,0,0,4.62-1.69,13.45,13.45,0,0,0,1.13-4.06,19.91,19.91,0,0,0,0-7A13.45,13.45,0,0,0,1243.64,246.92Z"/><path d="M1303.83,202.85a19.19,19.19,0,0,0-12.63-4.12,21.66,21.66,0,0,0-11.21,3,26.6,26.6,0,0,0-5.34,4.11,14.66,14.66,0,0,0-1.16-1.71,11.72,11.72,0,0,0-9.54-4.4h-5.18l-.88.87v88.5l.88.88h7.62q5.74,0,8.22-2.63t2.47-9.12V261.49l0,0a23.89,23.89,0,0,0,11.53,2.72,22.09,22.09,0,0,0,12.56-3.81,26.41,26.41,0,0,0,9.1-11.22q3.4-7.41,3.4-18.16a53,53,0,0,0-2.43-16.78A24.49,24.49,0,0,0,1303.83,202.85Zm-11,38a14.61,14.61,0,0,1-2.72,6.5,6,6,0,0,1-4.87,2.29,13.83,13.83,0,0,1-6.78-2.13c-.47-.27-.94-.56-1.41-.84V219.28a12.78,12.78,0,0,1,4.47-3.68,11.59,11.59,0,0,1,4.59-1.18,5.46,5.46,0,0,1,3.91,1.68,11.68,11.68,0,0,1,2.69,5.35,38.27,38.27,0,0,1,1,9.47A51.58,51.58,0,0,1,1292.86,240.88Z"/><path d="M1352.83,253.2a31.7,31.7,0,0,0-1.13-4.47h-3.43a5,5,0,0,1-4.13-1.53,6.84,6.84,0,0,1-1.25-4.41V182.73c0-4.33-.81-7.38-2.44-9.13s-4.35-2.62-8.18-2.62h-7.63l-.87.87v74.38q0,8.94,3.53,13.15t12,4.22a66.8,66.8,0,0,0,7.12-.37c2.34-.25,4.44-.52,6.32-.81a10.39,10.39,0,0,0,.4-2.19c.06-.79.1-1.54.1-2.25A26.82,26.82,0,0,0,1352.83,253.2Z"/><path d="M341.8,156.19a90.43,90.43,0,0,0-165.3-13,29.14,29.14,0,0,0-5-.43,29.55,29.55,0,0,0-26.92,17.16,74.94,74.94,0,0,0,3.22,142.84L138,339.25a7.08,7.08,0,0,0,11.09,7.5l54.87-41h131a74.92,74.92,0,0,0,6.89-149.52Zm-6.89,135.35H201.58a7.15,7.15,0,0,0-4.25,1.41L157,323.15l6.37-23.8a7.07,7.07,0,0,0-5.57-8.8,60.76,60.76,0,0,1-5.89-118.12,7.07,7.07,0,0,0,4.79-4.68,15.52,15.52,0,0,1,20.83-9.63,7.09,7.09,0,0,0,9.23-3.63,76.25,76.25,0,0,1,143,10.42,7.09,7.09,0,0,0,6.66,5.16,60.74,60.74,0,0,1-1.43,121.47Z"/><path d="M297.69,187.74V158.5a3.51,3.51,0,0,0-3.51-3.51h-10a3.51,3.51,0,0,0-3.51,3.51v15.72L255.38,154a5.68,5.68,0,0,0-7.08,0l-66.25,53,7.08,8.85,11.16-8.93V264a5.67,5.67,0,0,0,5.67,5.67h33.79a5.67,5.67,0,0,0,5.67-5.67V235.5h17.85V264a5.66,5.66,0,0,0,5.66,5.67h31.88a5.67,5.67,0,0,0,5.67-5.67V209.37l8.07,6.45,7.08-8.85-24-19.23Zm-2.55,70.59H274.6v-28.5a5.67,5.67,0,0,0-5.67-5.67H239.75a5.67,5.67,0,0,0-5.67,5.67v28.5H211.63v-60.5l40.21-32.17,43.3,34.64Z"/></svg>